<?xml version="1.0" standalone="no"?>
<!DOCTYPE svg PUBLIC "-//W3C//DTD SVG 20010904//EN"
 "http://www.w3.org/TR/2001/REC-SVG-20010904/DTD/svg10.dtd">
<svg version="1.0" xmlns="http://www.w3.org/2000/svg"
 width="640.000000pt" height="640.000000pt" viewBox="0 0 640.000000 640.000000"
 preserveAspectRatio="xMidYMid meet">
<metadata>
Created by potrace 1.11, written by Peter Selinger 2001-2013
</metadata>
<g transform="translate(0.000000,640.000000) scale(0.100000,-0.100000)"
fill="#000000" stroke="none">
<path d="M5281 4570 c-40 -17 -93 -31 -140 -35 -42 -4 -89 -9 -106 -11 -16 -1
-66 -6 -110 -9 -44 -4 -100 -8 -125 -10 -57 -5 -346 -16 -515 -20 -71 -2 -130
-3 -131 -4 -1 -1 18 -63 41 -138 l42 -138 49 1 c48 1 204 13 234 19 8 2 53 6
100 10 47 4 87 8 90 10 3 1 39 6 80 9 41 4 119 13 172 20 74 9 95 9 90 1 -10
-18 -55 -74 -167 -209 -294 -353 -527 -608 -1022 -1115 -84 -86 -153 -159
-153 -162 0 -9 197 -179 208 -179 6 0 12 4 14 9 6 15 142 162 263 283 317 318
509 401 915 394 91 -2 176 -6 190 -10 14 -3 35 -8 48 -10 64 -13 159 -55 215
-98 89 -67 162 -185 191 -308 23 -96 16 -285 -13 -369 -54 -155 -171 -272
-327 -326 -103 -35 -129 -37 -132 -11 -4 47 -52 217 -82 289 -100 241 -262
369 -485 384 -171 12 -327 -77 -403 -230 -77 -154 -21 -391 127 -537 75 -74
131 -107 246 -145 83 -28 91 -30 165 -42 58 -10 349 -10 420 -1 183 24 399
129 538 259 153 146 226 337 225 589 -3 406 -227 684 -617 766 -171 36 -366
37 -561 4 -33 -6 -76 -13 -95 -16 -19 -3 -43 -10 -52 -15 -40 -22 -6 28 87
126 11 11 56 61 100 110 44 50 96 108 116 130 20 22 121 135 223 250 160 180
193 212 228 222 23 7 49 20 59 29 38 34 25 62 -78 164 l-98 97 -64 -27z m-474
-1969 c121 -63 189 -203 226 -467 l5 -30 -97 2 c-154 2 -256 41 -341 127 -77
78 -112 177 -90 256 13 50 75 116 122 130 47 14 130 5 175 -18z"/>
<path d="M433 4520 c-19 -5 -19 -45 -18 -1330 1 -729 3 -1330 4 -1336 0 -7 41
-11 121 -11 l120 0 1 31 c1 17 1 50 0 74 l-1 42 48 0 c135 1 1960 2 1979 1 20
-1 22 -6 21 -56 -1 -30 0 -57 3 -59 4 -5 112 -8 199 -7 l46 1 0 1325 c-1 890
-4 1325 -11 1326 -51 4 -2498 3 -2512 -1z m2268 -239 c3 0 6 -462 6 -1026 l0
-1025 -1022 0 -1022 0 2 1028 c1 565 3 1027 3 1027 8 1 2028 -3 2033 -4z"/>
<path d="M1555 4119 c-125 -71 -122 -67 -82 -120 67 -88 120 -176 173 -285
l54 -112 110 66 c123 75 118 63 69 168 -41 88 -208 332 -229 333 -3 1 -45 -22
-95 -50z"/>
<path d="M2207 4112 c-3 -4 -24 -59 -47 -122 -23 -63 -46 -119 -50 -125 -4 -5
-13 -28 -20 -50 -41 -129 -268 -529 -363 -637 l-32 -38 -95 44 c-167 76 -183
83 -285 126 -152 63 -276 110 -289 109 -10 0 -147 -167 -154 -187 -1 -5 12
-15 30 -22 201 -81 614 -279 602 -289 -29 -24 -157 -113 -199 -137 -27 -16
-59 -34 -70 -41 -83 -49 -418 -203 -441 -203 -8 0 -14 -3 -14 -8 0 -8 46 -78
64 -99 6 -6 29 -37 50 -67 22 -31 44 -56 49 -56 36 0 363 156 482 230 97 61
200 137 266 198 l56 52 54 -28 c136 -70 342 -206 482 -318 l64 -52 92 110 c51
60 94 115 96 121 8 22 -263 207 -460 316 -60 33 -116 64 -124 69 -12 7 -3 23
41 78 129 162 257 386 377 659 65 148 81 177 111 197 40 27 50 55 23 64 -26 9
-213 83 -250 100 -36 16 -40 17 -46 6z"/>
<path d="M1040 3973 c-52 -31 -97 -57 -99 -59 -2 -2 10 -20 27 -41 72 -92 222
-357 222 -392 0 -6 5 -11 10 -11 12 0 169 93 201 119 l21 17 -36 72 c-72 142
-215 352 -240 352 -6 -1 -54 -26 -106 -57z"/>
</g>
</svg>
